<svg version="1.1" id="Layer_1" xmlns="http://www.w3.org/2000/svg" xmlns:xlink="http://www.w3.org/1999/xlink" x="0px" y="0px"
	 width="100%" viewBox="0 0 1024 1024" enable-background="new 0 0 1024 1024" xml:space="preserve">
<path fill="#000000" opacity="1.000000" stroke="none" 
	d="
M190.418518,649.545471 
	C209.043686,616.558594 233.293854,589.708069 267.791199,573.544617 
	C289.721893,563.269104 312.968872,557.724243 337.248444,557.700317 
	C452.221466,557.587036 567.195374,557.419678 682.167358,557.792358 
	C717.337708,557.906372 750.590027,566.260071 778.998108,588.171997 
	C807.592163,610.227356 828.586792,638.089600 840.573242,672.497864 
	C855.943115,716.618958 869.895264,761.180115 879.592224,806.892578 
	C886.534851,839.620483 878.169556,869.235779 856.949219,895.032959 
	C839.611816,916.109741 816.943848,928.164368 790.292603,932.963257 
	C785.571472,933.813416 780.712402,934.277710 775.916870,934.279602 
	C598.458496,934.348633 420.999329,934.633423 243.542236,934.156250 
	C194.677887,934.024841 152.053741,897.288086 141.628387,849.464905 
	C137.165558,828.992981 140.404358,809.184509 145.763351,789.454468 
	C157.573959,745.971619 170.544754,702.845703 185.589661,660.362488 
	C186.862747,656.767578 188.672607,653.362793 190.418518,649.545471 
M588.500061,619.353394 
	C508.005493,619.350952 427.510864,619.378784 347.016357,619.303772 
	C338.005646,619.295410 329.058868,619.551941 320.206635,621.349365 
	C283.183807,628.867065 256.659088,649.076172 243.305542,685.110046 
	C236.830048,702.583801 231.156296,720.330261 225.779175,738.167847 
	C218.152344,763.468262 210.369659,788.728577 203.844986,814.343201 
	C195.304276,847.872314 223.832474,871.926880 249.960938,871.864624 
	C424.448639,871.448486 598.937805,871.630310 773.426514,871.702698 
	C780.972290,871.705872 787.910950,870.000671 794.496094,866.529846 
	C814.335144,856.073547 823.392273,836.133850 817.930054,814.516418 
	C815.732361,805.818604 813.086182,797.234314 810.648926,788.596924 
	C801.170471,755.006409 792.805786,721.030029 779.631287,688.633850 
	C762.176392,645.712097 727.244202,619.466431 678.994263,619.355042 
	C649.163025,619.286133 619.331543,619.350281 588.500061,619.353394 
z"/>
<path fill="#000000" opacity="1.000000" stroke="none" 
	d="
M332.699799,166.725662 
	C366.729431,129.071823 407.866302,104.068764 457.123444,92.642357 
	C478.321289,87.724991 499.813568,85.436852 521.458191,86.812836 
	C586.085693,90.921318 641.953491,114.662918 686.064880,163.005249 
	C716.635803,196.508377 736.760437,235.626007 743.282837,280.699768 
	C755.038147,361.936768 729.868408,430.869324 670.517090,486.959839 
	C636.181213,519.409180 595.232117,539.847778 548.264648,547.140686 
	C505.556915,553.772217 464.085693,548.651428 423.980499,532.621948 
	C375.526917,513.255737 337.444275,481.298676 309.956512,437.059235 
	C293.822174,411.092285 283.239105,382.836609 278.635071,352.473236 
	C276.914795,341.128204 275.533752,329.786682 275.606110,318.262787 
	C275.863251,277.311768 285.813599,239.027115 306.351532,203.505814 
	C313.888184,190.470871 322.686096,178.394058 332.699799,166.725662 
M677.997864,271.313538 
	C665.171448,225.997696 637.460083,192.382874 596.806641,169.387405 
	C563.217773,150.387970 526.809692,144.996872 488.780762,149.213089 
	C450.531189,153.453751 417.526245,169.228622 390.050995,195.955948 
	C349.160400,235.733505 332.359039,284.512177 340.757965,340.711731 
	C348.129791,390.038727 373.392792,429.423492 414.799896,457.457397 
	C452.090637,482.704346 493.472382,492.840363 538.204529,485.365967 
	C581.750366,478.089783 617.911804,457.257172 645.849304,422.851074 
	C667.841858,395.766479 680.704895,364.708771 683.442566,329.930298 
	C684.972412,310.496033 683.649231,291.036316 677.997864,271.313538 
z"/>
</svg>